<svg id="Capa_1" enable-background="new 0 0 512 512" height="512" viewBox="0 0 512 512" width="512" xmlns="http://www.w3.org/2000/svg"><g id="XMLID_1526_"><g id="XMLID_222_"><path id="XMLID_617_" d="m500.549 189.782c-14.162-23.344-38.918-37.28-66.222-37.28-13.313 0-26.123 3.337-37.559 9.705-16.102-19.115-39.661-30.207-65.249-30.207-2.489 0-4.947.13-7.382.339l-17.801-17.801c-11.091-11.091-25.194-18.071-40.462-20.199v-43.089h18.5c5.522 0 10-4.477 10-10s-4.478-10-10-10h-18.5v-21.25c0-5.523-4.478-10-10-10-5.523 0-10 4.477-10 10v21.25h-18.501c-5.523 0-10 4.477-10 10s4.477 10 10 10h18.501v43.089c-15.268 2.129-29.37 9.108-40.462 20.199l-17.783 17.783c-2.359-.196-4.738-.321-7.146-.321-25.589 0-49.147 11.091-65.249 30.207-11.436-6.368-24.245-9.705-37.56-9.705-27.304 0-52.059 13.937-66.221 37.28-14.162 23.344-15.087 51.737-2.475 75.953l32.901 63.17c-9.004 5.668-15.005 15.691-15.005 27.095 0 14.153 9.239 26.182 22 30.391v63.218c-12.761 4.21-22 16.238-22 30.391 0 17.645 14.355 32 32 32h394c17.645 0 32-14.355 32-32 0-14.153-9.239-26.181-22-30.391v-63.218c12.761-4.21 22-16.238 22-30.391 0-11.323-5.916-21.283-14.814-26.972l32.965-63.293c12.611-24.215 11.686-52.609-2.476-75.953zm-113.015-6.247c11.979 19.747 12.763 43.765 2.094 64.249l-39.695 76.216h-83.933v-106.481c0-36.127 29.392-65.519 65.519-65.519 23.095 0 44.036 11.789 56.015 31.535zm-167.98-54.854c9.696-9.697 22.587-15.039 36.3-15.044.007 0 .013.001.02.001s.013-.001.02-.001c13.712.005 26.603 5.347 36.3 15.044l8.923 8.923c-19.405 7.408-35.439 21.679-45.116 39.841-9.707-18.219-25.81-32.526-45.298-39.913zm-39.073 23.319c36.127 0 65.519 29.392 65.519 65.519v106.481h-83.932l-39.696-76.216c-10.669-20.484-9.886-44.502 2.093-64.249s32.92-31.535 56.016-31.535zm-151.93 48.156c10.505-17.316 28.868-27.654 49.122-27.654 9.348 0 18.358 2.213 26.483 6.45-12.486 24.584-12.421 53.304.478 78.07l34.884 66.978h-77.645l-35.158-67.503c-9.356-17.963-8.67-39.025 1.836-56.341zm424.322 291.844h-394c-6.617 0-12-5.383-12-12s5.383-12 12-12h394c6.617 0 12 5.383 12 12s-5.383 12-12 12zm0-124h-151.938c-5.522 0-10 4.477-10 10s4.478 10 10 10h141.938v60h-374v-60h142.063c5.523 0 10-4.477 10-10s-4.477-10-10-10h-152.063c-6.617 0-12-5.383-12-12s5.383-12 12-12h394c6.617 0 12 5.383 12 12s-5.383 12-12 12zm32.412-111.503-35.157 67.503h-77.646l34.884-66.978c12.899-24.766 12.964-53.486.478-78.07 8.126-4.238 17.136-6.45 26.484-6.45 20.253 0 38.616 10.338 49.121 27.654s11.192 38.378 1.836 56.341z"/><path id="XMLID_638_" d="m167.54 408c-2.63 0-5.21 1.07-7.07 2.93s-2.93 4.44-2.93 7.07 1.07 5.21 2.93 7.07 4.44 2.93 7.07 2.93 5.21-1.07 7.07-2.93 2.93-4.44 2.93-7.07-1.07-5.21-2.93-7.07-4.44-2.93-7.07-2.93z"/><path id="XMLID_639_" d="m255.87 408c-2.63 0-5.21 1.07-7.07 2.93s-2.93 4.44-2.93 7.07 1.07 5.21 2.93 7.07 4.44 2.93 7.07 2.93c2.64 0 5.211-1.07 7.07-2.93 1.87-1.86 2.931-4.44 2.931-7.07s-1.061-5.21-2.931-7.07c-1.86-1.86-4.43-2.93-7.07-2.93z"/><path id="XMLID_640_" d="m344.21 428c2.63 0 5.2-1.07 7.07-2.93 1.859-1.86 2.93-4.44 2.93-7.07s-1.07-5.21-2.93-7.07-4.44-2.93-7.07-2.93c-2.641 0-5.21 1.07-7.08 2.93-1.86 1.86-2.92 4.44-2.92 7.07s1.06 5.21 2.92 7.07c1.87 1.86 4.439 2.93 7.08 2.93z"/><path id="XMLID_641_" d="m255.94 367.94c-2.64 0-5.21 1.06-7.07 2.92-1.87 1.87-2.93 4.44-2.93 7.08 0 2.63 1.06 5.21 2.93 7.07 1.86 1.86 4.43 2.93 7.07 2.93 2.629 0 5.21-1.07 7.07-2.93s2.93-4.44 2.93-7.07c0-2.64-1.069-5.21-2.93-7.08-1.861-1.86-4.441-2.92-7.07-2.92z"/></g></g></svg>