<svg height="504pt" viewBox="0 -7 504 504" width="504pt" xmlns="http://www.w3.org/2000/svg"><path d="m500 213.847656c0-66.226562-53.6875-119.914062-119.910156-119.914062-3.992188 0-7.933594.207031-11.820313.585937-13.109375-52.011719-60.183593-90.519531-116.269531-90.519531s-103.160156 38.507812-116.269531 90.519531c-3.886719-.378906-7.832031-.585937-11.820313-.585937-66.222656 0-119.910156 53.6875-119.910156 119.914062 0 44.167969 23.898438 82.734375 59.457031 103.539063-6.734375 14.984375-10.507812 31.582031-10.507812 49.074219 0 66.226562 53.683593 119.914062 119.910156 119.914062 30.335937 0 58.019531-11.289062 79.140625-29.863281 21.117188 18.574219 48.804688 29.863281 79.140625 29.863281 66.226563 0 119.910156-53.6875 119.910156-119.914062 0-17.488282-3.773437-34.089844-10.507812-49.074219 35.558593-20.804688 59.457031-59.371094 59.457031-103.539063zm0 0" fill="#ff4397"/><path d="m344.875 83.382812c2.296875 6.386719 8.308594 10.558594 15.09375 10.550782h.121094c2.722656 0 5.421875.125 8.101562.304687-13.207031-51.871093-60.210937-90.238281-116.191406-90.238281-3.367188 0-6.703125.144531-10 .421875 47.617188 3.929687 87.335938 35.679687 102.875 78.960937zm0 0" fill="#e12579"/><path d="m500 213.847656c0-66.226562-53.6875-119.914062-119.910156-119.914062-3.367188 0-6.6875.175781-9.976563.449218 61.527344 5.097657 109.886719 56.613282 109.886719 119.464844 0 40.992188-20.585938 77.15625-51.964844 98.777344-4.152344 2.863281-5.902344 8.183594-4.179687 12.921875 4.644531 12.769531 7.195312 26.542969 7.195312 40.914063 0 62.886718-48.414062 114.425781-110 119.472656 3.328125.277344 6.6875.441406 10.089844.441406 66.226563 0 119.910156-53.6875 119.910156-119.914062 0-17.488282-3.773437-34.089844-10.507812-49.074219 35.558593-20.804688 59.457031-59.371094 59.457031-103.539063zm0 0" fill="#e12579"/><path d="m159.125 83.382812c-2.296875 6.386719-8.308594 10.558594-15.09375 10.550782-.039062 0-.078125 0-.121094 0-2.722656 0-5.421875.125-8.101562.304687 13.207031-51.871093 60.210937-90.238281 116.191406-90.238281 3.367188 0 6.703125.144531 10 .421875-47.617188 3.929687-87.335938 35.679687-102.875 78.960937zm0 0" fill="#ff61b5"/><path d="m4 213.847656c0-66.226562 53.6875-119.914062 119.910156-119.914062 3.367188 0 6.6875.175781 9.980469.449218-61.53125 5.097657-109.890625 56.613282-109.890625 119.464844 0 40.992188 20.585938 77.15625 51.964844 98.777344 4.152344 2.863281 5.902344 8.183594 4.179687 12.921875-4.644531 12.769531-7.195312 26.542969-7.195312 40.914063 0 62.886718 48.414062 114.425781 110 119.472656-3.328125.277344-6.6875.441406-10.089844.441406-66.226563 0-119.910156-53.6875-119.910156-119.914062 0-17.488282 3.773437-34.089844 10.507812-49.074219-35.558593-20.804688-59.457031-59.371094-59.457031-103.539063zm0 0" fill="#ff61b5"/><g fill="#690589"><path d="m331.136719 490.371094c-28.949219 0-56.914063-10.132813-79.136719-28.597656-22.222656 18.464843-50.1875 28.597656-79.140625 28.597656-68.324219 0-123.910156-55.585938-123.910156-123.910156 0-16.425782 3.175781-32.375 9.449219-47.457032-36.109376-22.554687-58.398438-62.519531-58.398438-105.15625 0-68.328125 55.585938-123.914062 123.910156-123.914062 2.898438 0 5.855469.105468 8.816406.320312 14.984376-53.316406 63.550782-90.253906 119.273438-90.253906s104.289062 36.9375 119.273438 90.253906c2.960937-.214844 5.917968-.320312 8.816406-.320312 68.324218 0 123.910156 55.585937 123.910156 123.914062 0 42.636719-22.289062 82.605469-58.398438 105.15625 6.273438 15.085938 9.449219 31.03125 9.449219 47.457032 0 68.324218-55.585937 123.910156-123.914062 123.910156zm-79.136719-37.859375c.945312 0 1.886719.332031 2.640625.996093 21.164063 18.613282 48.332031 28.867188 76.496094 28.867188 63.914062 0 115.914062-52 115.914062-115.914062 0-16.472657-3.417969-32.433594-10.15625-47.433594-.835937-1.863282-.132812-4.058594 1.628907-5.089844 35.453124-20.746094 57.476562-59.097656 57.476562-100.089844 0-63.914062-51.996094-115.914062-115.910156-115.914062-3.742188 0-7.589844.191406-11.429688.566406-1.980468.199219-3.785156-1.082031-4.269531-3.003906-12.984375-51.515625-59.199219-87.496094-112.390625-87.496094s-99.40625 35.980469-112.390625 87.496094c-.480469 1.921875-2.300781 3.207031-4.269531 3.003906-3.839844-.375-7.6875-.566406-11.429688-.566406-63.914062 0-115.910156 52-115.910156 115.914062 0 40.992188 22.023438 79.34375 57.472656 100.089844 1.765625 1.03125 2.46875 3.226562 1.628906 5.089844-6.738281 15-10.15625 30.957031-10.15625 47.433594 0 63.914062 52 115.914062 115.914063 115.914062 28.164063 0 55.332031-10.253906 76.496094-28.867188.757812-.664062 1.699219-.996093 2.644531-.996093zm0 0"/><path d="m32.652344 168.402344c-.652344 0-1.316406-.160156-1.933594-.5-1.933594-1.070313-2.628906-3.503906-1.5625-5.4375 5.054688-9.121094 11.367188-17.496094 18.757812-24.890625 1.5625-1.558594 4.097657-1.558594 5.65625 0 1.5625 1.5625 1.5625 4.097656 0 5.65625-6.867187 6.871093-12.722656 14.644531-17.414062 23.113281-.726562 1.3125-2.09375 2.058594-3.503906 2.058594zm0 0"/><path d="m252 384.1875c-2.207031 0-4-1.792969-4-4v-270c0-2.210938 1.792969-4 4-4s4 1.789062 4 4v270c0 2.207031-1.792969 4-4 4zm0 0"/></g><path d="m259.054688 93.585938c-9.167969-3.890626-19.753907.382812-23.648438 9.550781s.378906 19.753906 9.546875 23.648437c9.164063 3.894532 19.753906-.382812 23.648437-9.546875 3.894532-9.167969-.378906-19.757812-9.546874-23.652343zm0 0" fill="#f4efed"/><path d="m270.035156 380.1875c0 9.957031-8.074218 18.03125-18.035156 18.03125s-18.035156-8.074219-18.035156-18.03125c0-9.960938 8.074218-18.035156 18.035156-18.035156s18.035156 8.074218 18.035156 18.035156zm0 0" fill="#f4efed"/><path d="m252 402.21875c-12.148438 0-22.035156-9.882812-22.035156-22.03125 0-12.152344 9.886718-22.035156 22.035156-22.035156s22.035156 9.882812 22.035156 22.035156c0 12.148438-9.886718 22.03125-22.035156 22.03125zm0-36.066406c-7.738281 0-14.035156 6.292968-14.035156 14.035156 0 7.738281 6.296875 14.03125 14.035156 14.03125s14.035156-6.292969 14.035156-14.03125c0-7.742188-6.296875-14.035156-14.035156-14.035156zm0 0" fill="#690589"/><path d="m252 132.21875c-12.148438 0-22.035156-9.882812-22.035156-22.03125 0-12.152344 9.886718-22.035156 22.035156-22.035156s22.035156 9.882812 22.035156 22.035156c0 12.148438-9.886718 22.03125-22.035156 22.03125zm0-36.066406c-7.738281 0-14.035156 6.292968-14.035156 14.035156 0 7.738281 6.296875 14.03125 14.035156 14.03125s14.035156-6.292969 14.035156-14.03125c0-7.742188-6.296875-14.035156-14.035156-14.035156zm0 0" fill="#690589"/><path d="m387 249.1875h-270c-2.207031 0-4-1.792969-4-4 0-2.210938 1.792969-4 4-4h270c2.207031 0 4 1.789062 4 4 0 2.207031-1.792969 4-4 4zm0 0" fill="#690589"/><path d="m405.03125 245.1875c0 9.957031-8.074219 18.03125-18.03125 18.03125s-18.03125-8.074219-18.03125-18.03125c0-9.960938 8.074219-18.035156 18.03125-18.035156s18.03125 8.074218 18.03125 18.035156zm0 0" fill="#f4efed"/><path d="m135.03125 245.1875c0 9.957031-8.074219 18.03125-18.03125 18.03125s-18.03125-8.074219-18.03125-18.03125c0-9.960938 8.074219-18.035156 18.03125-18.035156s18.03125 8.074218 18.03125 18.035156zm0 0" fill="#f4efed"/><path d="m117 267.21875c-12.148438 0-22.035156-9.882812-22.035156-22.03125 0-12.152344 9.886718-22.035156 22.035156-22.035156s22.035156 9.882812 22.035156 22.035156c0 12.148438-9.886718 22.03125-22.035156 22.03125zm0-36.066406c-7.738281 0-14.035156 6.292968-14.035156 14.035156 0 7.738281 6.296875 14.03125 14.035156 14.03125s14.035156-6.292969 14.035156-14.03125c0-7.742188-6.296875-14.035156-14.035156-14.035156zm0 0" fill="#690589"/><path d="m387 267.21875c-12.148438 0-22.035156-9.882812-22.035156-22.03125 0-12.152344 9.886718-22.035156 22.035156-22.035156s22.035156 9.882812 22.035156 22.035156c0 12.148438-9.886718 22.03125-22.035156 22.03125zm0-36.066406c-7.738281 0-14.035156 6.292968-14.035156 14.035156 0 7.738281 6.296875 14.03125 14.035156 14.03125s14.035156-6.292969 14.035156-14.03125c0-7.742188-6.296875-14.035156-14.035156-14.035156zm0 0" fill="#690589"/><path d="m347.457031 344.644531c-1.023437 0-2.046875-.390625-2.828125-1.171875l-190.917968-190.917968c-1.5625-1.5625-1.5625-4.09375 0-5.65625 1.5625-1.558594 4.09375-1.558594 5.65625 0l190.917968 190.917968c1.5625 1.5625 1.5625 4.09375 0 5.65625-.777344.78125-1.804687 1.171875-2.828125 1.171875zm0 0" fill="#690589"/><path d="m174.574219 149.726562c0 9.960938-8.074219 18.035157-18.035157 18.035157-9.957031 0-18.03125-8.074219-18.03125-18.035157 0-9.960937 8.074219-18.035156 18.03125-18.035156 9.960938 0 18.035157 8.074219 18.035157 18.035156zm0 0" fill="#f4efed"/><path d="m365.492188 340.644531c0 9.960938-8.074219 18.035157-18.03125 18.035157-9.960938 0-18.035157-8.074219-18.035157-18.035157 0-9.957031 8.074219-18.03125 18.035157-18.03125 9.957031 0 18.03125 8.074219 18.03125 18.03125zm0 0" fill="#f4efed"/><path d="m347.457031 362.667969c-5.640625 0-11.285156-2.148438-15.578125-6.441407-8.589844-8.59375-8.589844-22.570312 0-31.160156s22.570313-8.589844 31.160156 0c4.160157 4.160156 6.453126 9.695313 6.453126 15.578125 0 5.886719-2.292969 11.417969-6.453126 15.582031-4.296874 4.292969-9.9375 6.441407-15.582031 6.441407zm0-36.046875c-3.59375 0-7.1875 1.367187-9.921875 4.101562-5.472656 5.472656-5.472656 14.375 0 19.847656 5.472656 5.46875 14.375 5.472657 19.847656 0 2.648438-2.648437 4.109376-6.175781 4.109376-9.921874 0-3.75-1.457032-7.273438-4.109376-9.921876-2.738281-2.742187-6.332031-4.105468-9.925781-4.105468zm0 0" fill="#690589"/><path d="m156.542969 171.746094c-5.644531 0-11.285157-2.144532-15.582031-6.441406-4.160157-4.160157-6.453126-9.691407-6.453126-15.578126 0-5.886718 2.292969-11.417968 6.453126-15.582031 8.589843-8.589843 22.570312-8.585937 31.160156 0 8.589844 8.589844 8.589844 22.570313 0 31.160157-4.296875 4.296874-9.9375 6.441406-15.578125 6.441406zm0-36.046875c-3.59375 0-7.1875 1.367187-9.925781 4.105469-2.648438 2.648437-4.109376 6.171874-4.109376 9.921874 0 3.746094 1.457032 7.269532 4.109376 9.921876 5.472656 5.472656 14.375 5.472656 19.847656 0 5.472656-5.46875 5.472656-14.375 0-19.847657-2.738282-2.734375-6.332032-4.101562-9.921875-4.101562zm0 0" fill="#690589"/><path d="m156.542969 344.644531c-1.023438 0-2.046875-.390625-2.828125-1.171875-1.5625-1.5625-1.5625-4.09375 0-5.65625l190.917968-190.917968c1.5625-1.5625 4.09375-1.5625 5.65625 0s1.5625 4.09375 0 5.65625l-190.917968 190.917968c-.78125.78125-1.808594 1.171875-2.828125 1.171875zm0 0" fill="#690589"/><path d="m365.492188 149.726562c0 9.960938-8.074219 18.035157-18.03125 18.035157-9.960938 0-18.035157-8.074219-18.035157-18.035157 0-9.960937 8.074219-18.035156 18.035157-18.035156 9.957031 0 18.03125 8.074219 18.03125 18.035156zm0 0" fill="#f4efed"/><path d="m174.574219 340.644531c0 9.960938-8.074219 18.035157-18.035157 18.035157-9.957031 0-18.03125-8.074219-18.03125-18.035157 0-9.957031 8.074219-18.03125 18.03125-18.03125 9.960938 0 18.035157 8.074219 18.035157 18.03125zm0 0" fill="#f4efed"/><path d="m156.542969 362.667969c-5.644531 0-11.285157-2.148438-15.582031-6.441407-4.160157-4.164062-6.453126-9.695312-6.453126-15.582031s2.292969-11.417969 6.453126-15.582031c8.589843-8.585938 22.570312-8.585938 31.160156 0 8.589844 8.589844 8.589844 22.570312 0 31.160156-4.296875 4.296875-9.9375 6.445313-15.578125 6.445313zm0-36.046875c-3.59375 0-7.1875 1.367187-9.925781 4.101562-2.648438 2.652344-4.109376 6.175782-4.109376 9.921875 0 3.75 1.457032 7.273438 4.109376 9.925781 5.472656 5.46875 14.375 5.472657 19.847656 0 5.472656-5.46875 5.472656-14.375 0-19.847656-2.738282-2.738281-6.332032-4.101562-9.921875-4.101562zm12.75 26.773437h.019531zm0 0" fill="#690589"/><path d="m347.457031 171.746094c-5.640625 0-11.285156-2.144532-15.578125-6.441406-8.589844-8.589844-8.589844-22.570313 0-31.160157 8.589844-8.589843 22.570313-8.585937 31.160156 0 4.160157 4.164063 6.453126 9.699219 6.453126 15.582031 0 5.886719-2.292969 11.417969-6.453126 15.582032-4.296874 4.292968-9.9375 6.4375-15.582031 6.4375zm0-36.046875c-3.59375 0-7.1875 1.367187-9.921875 4.105469-5.472656 5.46875-5.472656 14.375 0 19.84375 5.472656 5.472656 14.375 5.472656 19.847656 0 2.648438-2.648438 4.109376-6.171876 4.109376-9.921876s-1.457032-7.269531-4.109376-9.921874c-2.738281-2.738282-6.332031-4.105469-9.925781-4.105469zm0 0" fill="#690589"/><path d="m310.308594 252.1875c0 32.199219-26.105469 58.304688-58.308594 58.304688s-58.308594-26.105469-58.308594-58.304688c0-32.203125 26.105469-58.308594 58.308594-58.308594s58.308594 26.105469 58.308594 58.308594zm0 0" fill="#f4efed"/><path d="m252 193.878906c-3.414062 0-6.753906.308594-10.007812.871094 27.433593 4.746094 48.304687 28.644531 48.304687 57.433594 0 28.789062-20.871094 52.6875-48.304687 57.433594 3.253906.5625 6.59375.875 10.007812.875 32.203125 0 58.308594-26.105469 58.308594-58.308594 0-32.199219-26.105469-58.304688-58.308594-58.304688zm0 0" fill="#d6d1cf"/><path d="m252 193.878906c3.414062 0 6.753906.308594 10.007812.871094-27.433593 4.746094-48.304687 28.644531-48.304687 57.433594 0 28.789062 20.871094 52.6875 48.304687 57.433594-3.253906.5625-6.59375.875-10.007812.875-32.203125 0-58.308594-26.105469-58.308594-58.308594 0-32.199219 26.105469-58.304688 58.308594-58.304688zm0 0" fill="#fff"/><path d="m252 314.492188c-34.359375 0-62.308594-27.949219-62.308594-62.304688 0-34.359375 27.953125-62.308594 62.308594-62.308594s62.308594 27.949219 62.308594 62.308594c0 34.355469-27.949219 62.304688-62.308594 62.304688zm0-116.613282c-29.945312 0-54.308594 24.359375-54.308594 54.308594 0 29.945312 24.363282 54.304688 54.308594 54.304688s54.308594-24.359376 54.308594-54.304688c0-29.949219-24.363282-54.308594-54.308594-54.308594zm0 0" fill="#690589"/></svg>