<svg height="512" viewBox="0 0 256 256" width="512" xmlns="http://www.w3.org/2000/svg"><path d="m75.792 209.931a2.5 2.5 0 0 1 -.592-4.931l39.813-9.773a2.5 2.5 0 0 1 1.193 4.855l-39.813 9.773a2.474 2.474 0 0 1 -.601.076z" fill="#ebe7f2"/><path d="m65.432 175.1a2.5 2.5 0 0 1 -.608-4.926l43.035-10.834a2.5 2.5 0 1 1 1.221 4.849l-43.036 10.834a2.528 2.528 0 0 1 -.612.077z" fill="#a58bc9"/><path d="m180.208 150.467a2.523 2.523 0 0 1 -.6-.073l-39.808-9.773a2.5 2.5 0 0 1 1.193-4.855l39.813 9.772a2.5 2.5 0 0 1 -.594 4.929z" fill="#ebe7f2"/><path d="m190.568 115.637a2.583 2.583 0 0 1 -.612-.076l-43.036-10.834a2.5 2.5 0 0 1 1.221-4.85l43.035 10.834a2.5 2.5 0 0 1 -.608 4.926z" fill="#a58bc9"/><g fill="#846f75"><path d="m71.4 187.732 40.246-10.043a2.5 2.5 0 0 0 1.851-2.892l-5.761-30.286a33.923 33.923 0 0 1 .762-15.533c2.755-9.917-4.475-24.927-11.026-35.773a19.606 19.606 0 0 0 -14.639-9.393 18.717 18.717 0 0 0 -18.633 9.5c-10.463 18.941-13.7 39.8-9.122 58.75a71.358 71.358 0 0 0 3.594 10.921l9.819 23.293a2.5 2.5 0 0 0 2.909 1.455zm-8.121-26.69a66.343 66.343 0 0 1 -3.341-10.155c-4.286-17.725-1.218-37.314 8.639-55.156a13.692 13.692 0 0 1 12.019-7.047 14.726 14.726 0 0 1 12.6 7.107c8.418 13.936 12.241 25.544 10.49 31.849a38.861 38.861 0 0 0 -.857 17.8l5.319 27.966-35.876 8.952z"/><path d="m115.364 186.931a2.5 2.5 0 0 0 -2.989-1.8l-40.051 9.392a2.5 2.5 0 0 0 -1.839 3.1l4.8 17.324a23.064 23.064 0 0 0 22.155 16.826 22.947 22.947 0 0 0 22.155-28.8zm-2.734 31.4a17.777 17.777 0 0 1 -11.718 8.1 18.02 18.02 0 0 1 -20.812-12.813l-4.1-14.818 35.15-8.243 3.611 13.689a17.776 17.776 0 0 1 -2.131 14.086z"/><path d="m191.8 33.851a18.712 18.712 0 0 0 -18.633-9.5 19.6 19.6 0 0 0 -14.639 9.392c-6.551 10.846-13.781 25.856-11.026 35.773a33.923 33.923 0 0 1 .762 15.533l-5.761 30.286a2.5 2.5 0 0 0 1.851 2.893l40.246 10.042a2.5 2.5 0 0 0 2.909-1.456l9.819-23.292a71.3 71.3 0 0 0 3.598-10.922c4.58-18.946 1.341-39.809-9.126-58.749zm4.262 57.574a66.343 66.343 0 0 1 -3.341 10.155l-8.984 21.32-35.876-8.952 5.319-27.966a38.861 38.861 0 0 0 -.857-17.8c-1.751-6.305 2.072-17.913 10.489-31.849a14.637 14.637 0 0 1 10.933-7.012 13.709 13.709 0 0 1 13.682 6.953c9.857 17.836 12.925 37.426 8.639 55.151z"/><path d="m183.676 135.064-40.051-9.392a2.5 2.5 0 0 0 -2.989 1.8l-4.231 16.041a22.938 22.938 0 0 0 22.155 28.8 23.067 23.067 0 0 0 22.155-16.822l4.8-17.324a2.5 2.5 0 0 0 -1.839-3.1zm-7.776 19.091a18.021 18.021 0 0 1 -20.809 12.812 17.95 17.95 0 0 1 -13.848-22.183l3.611-13.689 35.146 8.243z"/></g></svg>