<svg height="512" viewBox="0 0 256 256" width="512" xmlns="http://www.w3.org/2000/svg"><path d="m193.841 193.18a7.569 7.569 0 0 1 -7.57-7.57v-45.243a18.4 18.4 0 0 0 -18.384-18.384h-30.287a7.57 7.57 0 0 1 0-15.139h30.285a33.561 33.561 0 0 1 33.523 33.523v45.243a7.57 7.57 0 0 1 -7.567 7.57z" fill="#d6d1cf"/><path d="m193.841 195.18a9.58 9.58 0 0 1 -9.57-9.57v-45.243a16.4 16.4 0 0 0 -16.384-16.384h-30.287a9.57 9.57 0 1 1 0-19.139h30.284a35.563 35.563 0 0 1 35.523 35.523v45.243a9.581 9.581 0 0 1 -9.566 9.57zm-56.241-86.336a5.57 5.57 0 1 0 0 11.139h30.284a20.407 20.407 0 0 1 20.384 20.384v45.243a5.57 5.57 0 1 0 11.139 0v-45.243a31.558 31.558 0 0 0 -31.523-31.523z" fill="#690589"/><path d="m243.181 203.792c0-19-29.871-35.264-72.188-41.951a24.6 24.6 0 0 1 -15.878-9.424 55.068 55.068 0 0 1 -10.4-24.7c-4.362-28.5 3.048-60.8 11.168-85.249l-71.376-38.468s35.162 68.9 26.775 123.717a54.826 54.826 0 0 1 -10.5 24.757 24.626 24.626 0 0 1 -15.836 9.376c-42.284 6.693-72.128 22.949-72.128 41.942 0 19.608 31.809 36.3 76.277 42.562a6.147 6.147 0 0 0 6.126 5.646h65.558a6.149 6.149 0 0 0 6.126-5.646c44.467-6.263 76.276-22.954 76.276-42.562z" fill="#f4efed"/><path d="m22.819 207.792c0-18.993 29.844-35.249 72.128-41.942a24.631 24.631 0 0 0 15.836-9.376 54.826 54.826 0 0 0 10.5-24.757c7.57-49.477-20.337-110.423-25.844-121.825l-10.932-5.892s35.162 68.9 26.775 123.717a54.826 54.826 0 0 1 -10.5 24.757 24.631 24.631 0 0 1 -15.836 9.376c-42.284 6.693-72.128 22.949-72.128 41.942 0 13.344 14.74 25.332 38.165 33.606-17.535-7.932-28.164-18.279-28.164-29.606z" fill="#fff"/><path d="m12.819 203.792c0 19.608 31.809 36.3 76.277 42.562a6.147 6.147 0 0 0 6.125 5.646h65.558a6.149 6.149 0 0 0 6.126-5.646c44.467-6.263 76.276-22.954 76.276-42.562a20.157 20.157 0 0 0 -3.2-10.612h-223.96a20.166 20.166 0 0 0 -3.202 10.612z" fill="#8852a8"/><path d="m170.993 161.841a24.594 24.594 0 0 1 -15.878-9.425 55.06 55.06 0 0 1 -10.4-24.695c-4.362-28.5 3.048-60.8 11.168-85.249l-8.431-4.544c-7.846 25.192-16.847 66.946-12.737 93.793a55.06 55.06 0 0 0 10.4 24.695 24.594 24.594 0 0 0 15.878 9.425c42.317 6.686 72.188 22.949 72.188 41.951 0 11.327-10.629 21.674-28.165 29.606 23.425-8.274 38.165-20.262 38.165-33.606 0-19.002-29.871-35.265-72.188-41.951z" fill="#d6d1cf"/><path d="m16.021 193.18a20.166 20.166 0 0 0 -3.2 10.612c0 13.344 14.74 25.332 38.165 33.606-17.536-7.932-28.165-18.279-28.165-29.606 0-5.115 2.181-10.028 6.17-14.612z" fill="#a670c6"/><path d="m239.979 193.18h-12.968c3.988 4.584 6.17 9.5 6.17 14.612 0 11.327-10.629 21.674-28.165 29.606 23.425-8.274 38.165-20.262 38.165-33.606a20.157 20.157 0 0 0 -3.202-10.612z" fill="#6a348a"/><g fill="#690589"><path d="m160.779 254h-65.558a8.2 8.2 0 0 1 -7.82-5.869c-46.574-6.82-76.583-24.158-76.583-44.339 0-19.581 28.975-36.82 73.817-43.917a22.5 22.5 0 0 0 14.553-8.607 53.072 53.072 0 0 0 10.118-23.853c8.194-53.535-26.231-121.823-26.579-122.506a2 2 0 0 1 2.73-2.67l71.379 38.472a2 2 0 0 1 .949 2.391c-7.493 22.564-15.5 55.507-11.09 84.316a53.272 53.272 0 0 0 10.02 23.8 22.444 22.444 0 0 0 14.591 8.648c44.878 7.092 73.876 24.334 73.876 43.927 0 20.181-30.009 37.519-76.583 44.339a8.2 8.2 0 0 1 -7.82 5.868zm-71.841-245.34c8.062 17.607 31.327 73.574 24.321 119.36a57.063 57.063 0 0 1 -10.88 25.659 26.476 26.476 0 0 1 -17.119 10.147c-42.133 6.669-70.442 22.73-70.442 39.966 0 17.992 29.962 34.3 74.557 40.581a2 2 0 0 1 1.714 1.818 4.168 4.168 0 0 0 4.132 3.809h65.558a4.168 4.168 0 0 0 4.132-3.809 2 2 0 0 1 1.714-1.818c44.6-6.28 74.557-22.589 74.557-40.581 0-17.248-28.332-33.313-70.5-39.976a26.427 26.427 0 0 1 -17.167-10.2 57.263 57.263 0 0 1 -10.772-25.592c-2.469-16.127-2.578-43.825 10.721-84.586z"/><path d="m120.135 130.477a2.112 2.112 0 0 1 -.306-.023 2 2 0 0 1 -1.674-2.28c.58-3.79 1-7.766 1.242-11.818a2 2 0 1 1 3.993.241c-.251 4.173-.682 8.272-1.282 12.182a2 2 0 0 1 -1.973 1.698z"/><path d="m238.979 195.18h-221.958a2 2 0 0 1 0-4h221.958a2 2 0 0 1 0 4z"/></g></svg>