<svg height="495pt" viewBox="0 -21 495.4759 495" width="495pt" xmlns="http://www.w3.org/2000/svg"><path d="m228.6875 288.433594c-15.03125-1.441406-29.535156.101562-42.722656 4.074218-70.34375 14.855469-118.765625 68.414063-118.765625 68.414063 78.152343 94.746094 147.199219 91.78125 147.199219 91.78125l.003906-.03125c52.796875 4.390625 98.804687-27.988281 103.117187-72.894531 4.351563-45.320313-35.421875-86.21875-88.832031-91.34375zm0 0" fill="#eacf32"/><path d="m214.402344 403.882812v.03125s-55.28125 2.363282-122.894532-65.007812c-15.519531 12.300781-24.304687 22.015625-24.304687 22.015625 78.152344 94.746094 147.199219 91.78125 147.199219 91.78125v-.03125c52.796875 4.390625 98.808594-27.988281 103.117187-72.894531 1.035157-10.800782-.457031-21.339844-4.015625-31.210938-12.976562 35.457032-53.496094 59.109375-99.101562 55.316406zm0 0" fill="#ccc033"/><path d="m405.625 395.039062c-.242188 0-.488281-.007812-.730469-.027343l-123.757812-8.953125-62.414063-5.191406c-5.503906-.457032-9.59375-5.292969-9.132812-10.796876.457031-5.5 5.28125-9.597656 10.792968-9.132812l62.304688 5.183594 123.648438 8.945312c5.507812.398438 9.648437 5.1875 9.253906 10.695313-.382813 5.261719-4.769532 9.277343-9.964844 9.277343zm0 0" fill="#fce575"/><path d="m168.9375 30.695312c-79.648438-41.621093-168.9375-28.492187-168.9375-28.492187 0 153.523437 68.941406 205.585937 68.941406 205.585937l.011719-.015624c47.417969 46.234374 117.550781 51.589843 157.425781 11.714843 40.242188-40.242187 34.421875-111.3125-13.003906-158.738281-13.34375-13.347656-28.5625-23.394531-44.4375-30.054688zm0 0" fill="#ccc033"/><path d="m232.394531 154.253906c-3.199219 0-5.859375-2.527344-5.992187-5.75-1.015625-24.507812-12.644532-49.613281-31.90625-68.875-10.585938-10.582031-22.65625-18.761718-35.886719-24.3125l-.800781-.332031c-3.058594-1.277344-4.5-4.792969-3.222656-7.851563 1.277343-3.054687 4.789062-4.5 7.851562-3.21875l.804688.335938c14.683593 6.15625 28.046874 15.203125 39.738281 26.894531 21.367187 21.367188 34.273437 49.378907 35.414062 76.859375.136719 3.3125-2.4375 6.105469-5.746093 6.246094-.085938 0-.171876.003906-.253907.003906zm0 0" fill="#eacf32"/><path d="m117.742188 158.984375-.011719.015625s-54.542969-41.195312-66.597657-158.347656c-30.398437-1.496094-51.132812 1.550781-51.132812 1.550781 0 153.523437 68.941406 205.585937 68.941406 205.585937l.011719-.015624c47.417969 46.234374 117.550781 51.589843 157.425781 11.714843 8.554688-8.554687 15.019532-18.507812 19.457032-29.328125-39.601563 16.226563-90.851563 5.136719-128.09375-31.175781zm0 0" fill="#99af17"/><path d="m485.464844 438.78125c-1.621094 0-3.269532-.394531-4.792969-1.230469l-101.460937-55.574219c-6.582032-3.605468-12.609376-8.121093-17.914063-13.425781l-233.066406-233.066406c-3.90625-3.902344-3.90625-10.234375 0-14.140625 3.90625-3.902344 10.238281-3.902344 14.144531 0l233.0625 233.066406c3.960938 3.960938 8.460938 7.335938 13.375 10.027344l101.464844 55.574219c4.84375 2.652343 6.621094 8.726562 3.964844 13.574219-1.8125 3.316406-5.238282 5.195312-8.777344 5.195312zm0 0" fill="#fcda4f"/><path d="m162.070312 342.609375c0 9.664063-7.835937 17.5-17.5 17.5-9.664062 0-17.5-7.835937-17.5-17.5 0-9.667969 7.835938-17.5 17.5-17.5 9.664063 0 17.5 7.832031 17.5 17.5zm0 0" fill="#ccc033"/><path d="m105.605469 32.429688c0 9.664062-7.835938 17.5-17.5 17.5-9.667969 0-17.5-7.835938-17.5-17.5 0-9.667969 7.832031-17.5 17.5-17.5 9.664062 0 17.5 7.832031 17.5 17.5zm0 0" fill="#99af17"/><path d="m186.832031 186.554688c-2.945312 0-5.511719-2.167969-5.933593-5.167969-.457032-3.242188 1.769531-6.242188 4.988281-6.757813.472656-.09375 3.851562-.914062 5.773437-5.246094 2.832032-6.394531 3.894532-23.1875-20.832031-63.816406-1.71875-2.832031-.820313-6.523437 2.007813-8.246094 2.828124-1.722656 6.523437-.824218 8.246093 2.007813 21.28125 34.972656 28.449219 60.363281 21.296875 75.46875-4.75 10.03125-13.699218 11.558594-14.703125 11.699219-.285156.039062-.5625.058594-.84375.058594zm0 0" fill="#fcda4f"/><path d="m281.855469 382.085938c-2.664063 0-5.09375-1.785157-5.800781-4.476563-.121094-.433594-6.640626-22.476563-42.050782-41.269531-2.929687-1.550782-4.042968-5.1875-2.488281-8.113282 1.550781-2.925781 5.1875-4.035156 8.109375-2.488281 40.699219 21.597657 47.765625 47.761719 48.046875 48.867188.816406 3.210937-1.125 6.476562-4.332031 7.292969-.496094.128906-.996094.1875-1.484375.1875zm0 0" fill="#fce575"/></svg>